# File created by Blade
# Date/Time:  Fri Jan 16 17:53:05 2015
# Frame Rate: 120.000 fps
#------------------------------------------------------
:FULLY-SPECIFIED
:DEGREES
1882
root -3.050907 35.523895 -11.540754 -4.858021 7.554067 -11.790022
Spine 2.049913 -14.227848 9.660821
Head 8.529596 -1.788775 -4.624711
LeftShoulder -21.369982 16.477774 -8.326152
LeftArm 28.269908 -15.965985 -68.819921
LeftForeArm 5.968147 -0.000000 127.049881
LeftHand 0.982561 -0.000000 14.478318
LeftHandThumb1 -26.253704 0.000000 33.147579
RightShoulder -6.578982 -7.195213 1.417178
RightArm -0.057202 -21.532925 74.844732
RightForeArm -14.363457 -0.000000 17.953540
RightHand 0.279040 -0.000000 1.820104
RightHandThumb1 -24.326973 -0.000000 -32.862282
LeftUpLeg 11.534700 -0.390957 0.671459
LeftLeg -8.173421 -0.000000 0.000000
LeftFoot -13.909745 26.061947 -4.241713
LeftToeBase 19.104341 -0.000000 -0.000000
RightUpLeg -1.208103 13.034051 12.343397
RightLeg 12.672616 -0.000000 -0.000000
RightFoot -2.812411 -26.117288 0.669814
RightToeBase -6.889023 -0.000000 0.000000
1883
root -3.050076 35.519314 -11.540600 -4.804273 7.460533 -11.746105
Spine 1.985958 -14.129388 9.665703
Head 8.541656 -1.725194 -4.650633
LeftShoulder -21.373325 16.466063 -8.346493
LeftArm 28.225872 -15.965642 -68.870318
LeftForeArm 5.767652 -0.000000 127.068798
LeftHand 1.147145 0.000000 14.588175
LeftHandThumb1 -26.253704 0.000000 33.147579
RightShoulder -6.601249 -7.246668 1.425402
RightArm -0.108718 -21.504037 74.872478
RightForeArm -14.442668 -0.000000 17.932682
RightHand 0.207690 -0.000000 2.155812
RightHandThumb1 -24.326973 -0.000000 -32.862282
LeftUpLeg 11.529269 -0.269983 0.642846
LeftLeg -8.229169 -0.000000 0.000000
LeftFoot -13.886942 26.007698 -4.251711
LeftToeBase 19.076912 -0.000000 -0.000000
RightUpLeg -1.191397 12.752097 12.405213
RightLeg 12.380500 -0.000000 -0.000000
RightFoot -2.775739 -26.800878 0.468351
RightToeBase -5.884642 -0.000000 0.000000
1884
root -3.050088 35.515652 -11.541296 -4.749924 7.373835 -11.704569
Spine 1.932703 -14.069658 9.660816
Head 8.534144 -1.663692 -4.665332
LeftShoulder -21.416335 16.434326 -8.372852
LeftArm 28.175356 -15.985229 -68.922067
LeftForeArm 5.813317 -0.000000 127.109037
LeftHand 1.152583 0.000000 14.489289
LeftHandThumb1 -26.253704 0.000000 33.147579
RightShoulder -6.602454 -7.130973 1.429264
RightArm -0.290078 -21.555986 74.930074
RightForeArm -14.390889 -0.000000 17.892259
RightHand 0.122112 0.000000 2.205902
RightHandThumb1 -24.326973 -0.000000 -32.862282
LeftUpLeg 11.515099 -0.196570 0.613773
LeftLeg -8.269691 -0.000000 0.000000
LeftFoot -13.885418 25.978260 -4.275751
LeftToeBase 19.082280 -0.000000 -0.000000
RightUpLeg -1.176413 12.582106 12.462774
RightLeg 12.128251 -0.000000 -0.000000
RightFoot -2.610767 -27.425806 0.253966
RightToeBase -5.315458 -0.000000 0.000000
1885
root -3.051726 35.513565 -11.543525 -4.694086 7.282693 -11.676523
Spine 1.881221 -14.001619 9.682253
Head 8.507822 -1.599215 -4.699274
LeftShoulder -21.443837 16.409171 -8.415106
LeftArm 28.128435 -16.047094 -68.987316
LeftForeArm 5.829986 0.000000 127.141885
LeftHand 1.168972 -0.000000 14.475995
LeftHandThumb1 -26.253704 0.000000 33.147579
RightShoulder -6.619527 -7.146892 1.435468
RightArm -0.304317 -21.572328 74.941700
RightForeArm -14.290442 -0.000000 17.810070
RightHand 0.239849 -0.000000 1.901513
RightHandThumb1 -24.326973 -0.000000 -32.862282
LeftUpLeg 11.484890 -0.114196 0.598564
LeftLeg -8.292726 -0.000000 0.000000
LeftFoot -13.889122 25.959547 -4.322875
LeftToeBase 19.057998 -0.000000 -0.000000
RightUpLeg -1.177663 12.448815 12.530782
RightLeg 11.919772 -0.000000 -0.000000
RightFoot -2.485520 -28.133081 0.233598
RightToeBase -4.437461 -0.000000 0.000000
1886
root -3.051579 35.511515 -11.547036 -4.630330 7.192050 -11.637539
Spine 1.820325 -13.935672 9.687774
Head 8.500677 -1.545010 -4.718780
LeftShoulder -21.467437 16.382473 -8.439308
LeftArm 28.077765 -16.091990 -69.083371
LeftForeArm 5.842031 -0.000000 127.185891
LeftHand 0.938261 0.000000 14.430526
LeftHandThumb1 -26.253704 0.000000 33.147579
RightShoulder -6.628069 -7.155606 1.430527
RightArm -0.334366 -21.542017 74.968647
RightForeArm -14.336524 -0.000000 17.753767
RightHand 0.142913 -0.000000 2.375556
RightHandThumb1 -24.326973 -0.000000 -32.862282
LeftUpLeg 11.443589 -0.079484 0.563366
LeftLeg -8.311435 -0.000000 0.000000
LeftFoot -13.900786 25.990622 -4.362880
LeftToeBase 19.100905 -0.000000 -0.000000
RightUpLeg -1.216263 12.294075 12.565305
RightLeg 11.802821 -0.000000 -0.000000
RightFoot -2.304546 -28.686988 0.055912
RightToeBase -4.084034 -0.000000 0.000000
1887
root -3.051880 35.510177 -11.551175 -4.572844 7.109716 -11.603056
Spine 1.767312 -13.890029 9.695759
Head 8.489273 -1.507655 -4.746723
LeftShoulder -21.475258 16.358245 -8.479192
LeftArm 28.008288 -16.202315 -69.170999
LeftForeArm 5.928070 -0.000000 127.262605
LeftHand 1.087420 -0.000000 14.324624
LeftHandThumb1 -26.253704 0.000000 33.147579
RightShoulder -6.620989 -7.163463 1.421782
RightArm -0.365463 -21.521146 74.996972
RightForeArm -14.380396 -0.000000 17.717839
RightHand 0.163975 0.000000 2.425019
RightHandThumb1 -24.326973 -0.000000 -32.862282
LeftUpLeg 11.399692 -0.033565 0.535661
LeftLeg -8.317238 -0.000000 0.000000
LeftFoot -13.922337 26.026619 -4.325112
LeftToeBase 19.264678 -0.000000 -0.000000
RightUpLeg -1.259251 12.155016 12.603849
RightLeg 11.756211 -0.000000 -0.000000
RightFoot -2.282877 -29.161114 0.074141
RightToeBase -3.305608 -0.000000 0.000000
1888
root -3.050873 35.509261 -11.553794 -4.539398 7.038375 -11.552798
Spine 1.744868 -13.842009 9.671523
Head 8.476876 -1.492821 -4.752738
LeftShoulder -21.432536 16.374927 -8.501375
LeftArm 27.946930 -16.332922 -69.270779
LeftForeArm 6.007780 -0.000000 127.342335
LeftHand 1.066146 -0.000000 14.271015
LeftHandThumb1 -26.253704 0.000000 33.147579
RightShoulder -6.628165 -7.152773 1.408544
RightArm -0.397379 -21.537848 75.037246
RightForeArm -14.352648 0.000000 17.686275
RightHand 0.139868 0.000000 2.386836
RightHandThumb1 -24.326973 -0.000000 -32.862282
LeftUpLeg 11.373664 0.005637 0.489205
LeftLeg -8.302823 -0.000000 0.000000
LeftFoot -13.936839 26.039758 -4.408095
LeftToeBase 19.195825 -0.000000 -0.000000
RightUpLeg -1.282668 11.997404 12.627765
RightLeg 11.746986 -0.000000 -0.000000
RightFoot -2.245526 -29.503597 -0.021077
RightToeBase -2.936927 -0.000000 0.000000
1889
root -3.049660 35.507960 -11.558000 -4.491533 6.973050 -11.506391
Spine 1.695234 -13.819036 9.667561
Head 8.482024 -1.461317 -4.799093
LeftShoulder -21.397744 16.379728 -8.533337
LeftArm 27.861461 -16.445556 -69.347670
LeftForeArm 5.972894 -0.000000 127.443564
LeftHand 0.980864 0.000000 14.326726
LeftHandThumb1 -26.253704 0.000000 33.147579
RightShoulder -6.609843 -7.268634 1.378152
RightArm -0.295365 -21.569669 75.045908
RightForeArm -14.239913 0.000000 17.642316
RightHand 0.235341 -0.000000 2.067642
RightHandThumb1 -24.326973 -0.000000 -32.862282
LeftUpLeg 11.332699 0.081311 0.448524
LeftLeg -8.296970 -0.000000 0.000000
LeftFoot -13.955194 26.015298 -4.447698
LeftToeBase 19.265662 -0.000000 -0.000000
RightUpLeg -1.337187 11.866563 12.633908
RightLeg 11.788277 -0.000000 -0.000000
RightFoot -2.250586 -29.704132 -0.078609
RightToeBase -2.702000 -0.000000 0.000000
1890
root -3.047819 35.506598 -11.561427 -4.451756 6.917426 -11.454992
Spine 1.663426 -13.805614 9.645000
Head 8.463463 -1.437810 -4.817266
LeftShoulder -21.373781 16.345383 -8.536752
LeftArm 27.777577 -16.562283 -69.452626
LeftForeArm 6.091345 0.000000 127.470058
LeftHand 1.044268 -0.000000 14.354275
LeftHandThumb1 -26.253704 0.000000 33.147579
RightShoulder -6.591647 -7.270266 1.349028
RightArm -0.308495 -21.627834 75.087128
RightForeArm -14.136269 -0.000000 17.631537
RightHand 0.228899 -0.000000 1.942413
RightHandThumb1 -24.326973 -0.000000 -32.862282
LeftUpLeg 11.292791 0.146041 0.400066
LeftLeg -8.274825 -0.000000 0.000000
LeftFoot -13.944260 25.990740 -4.488231
LeftToeBase 19.175394 -0.000000 -0.000000
RightUpLeg -1.399442 11.685560 12.638790
RightLeg 11.847943 -0.000000 -0.000000
RightFoot -2.251950 -29.942153 -0.133360
RightToeBase -2.267949 -0.000000 0.000000
1891
root -3.044996 35.505443 -11.564908 -4.431529 6.872453 -11.400325
Spine 1.659126 -13.803649 9.618409
Head 8.436128 -1.441940 -4.855769
LeftShoulder -21.340174 16.323521 -8.548899
LeftArm 27.703634 -16.659362 -69.555565
LeftForeArm 6.105050 -0.000000 127.542416
LeftHand 0.920020 0.000000 14.419717
LeftHandThumb1 -26.253704 0.000000 33.147579
RightShoulder -6.553894 -7.280700 1.309003
RightArm -0.324517 -21.521610 75.147005
RightForeArm -14.280061 -0.000000 17.642849
RightHand 0.283279 -0.000000 1.950433
RightHandThumb1 -24.326973 -0.000000 -32.862282
LeftUpLeg 11.273657 0.219258 0.345791
LeftLeg -8.262803 -0.000000 0.000000
LeftFoot -13.942635 25.943510 -4.650263
LeftToeBase 18.977556 -0.000000 -0.000000
RightUpLeg -1.443225 11.566502 12.622468
RightLeg 11.917298 -0.000000 -0.000000
RightFoot -2.204990 -30.125546 -0.327966
RightToeBase -1.835812 -0.000000 0.000000
1892
root -3.041946 35.503129 -11.567549 -4.408498 6.834457 -11.348937
Spine 1.647332 -13.811963 9.600154
Head 8.399065 -1.419263 -4.897600
LeftShoulder -21.325712 16.253459 -8.542099
LeftArm 27.603615 -16.735887 -69.647157
LeftForeArm 6.085419 -0.000000 127.561001
LeftHand 0.925863 -0.000000 14.386813
LeftHandThumb1 -26.253704 0.000000 33.147579
RightShoulder -6.529768 -7.296793 1.241292
RightArm -0.321402 -21.705914 75.199769
RightForeArm -14.098051 -0.000000 17.675541
RightHand 0.277979 -0.000000 1.843591
RightHandThumb1 -24.326973 -0.000000 -32.862282
LeftUpLeg 11.258965 0.274427 0.294094
LeftLeg -8.262669 -0.000000 0.000000
LeftFoot -13.935390 25.920737 -4.687221
LeftToeBase 18.960899 -0.000000 -0.000000
RightUpLeg -1.482230 11.439702 12.623416
RightLeg 11.953908 -0.000000 -0.000000
RightFoot -2.153531 -30.452042 -0.458966
RightToeBase -1.477259 -0.000000 0.000000
